<?xml version="1.0" encoding="iso-8859-1"?><!-- Generator: Adobe Illustrator 21.1.0, SVG Export Plug-In . SVG Version: 6.00 Build 0)  --><svg xmlns="http://www.w3.org/2000/svg" xmlns:xlink="http://www.w3.org/1999/xlink" viewBox="0 0 50 50" width="50px" height="50px"><path style="fill:none;stroke:#000000;stroke-width:2;stroke-linecap:round;stroke-linejoin:round;stroke-miterlimit:10;" d="M9,45h32c2.209,0,4-1.791,4-4V9c0-2.209-1.791-4-4-4H9C6.791,5,5,6.791,5,9v32C5,43.209,6.791,45,9,45z"/><line style="fill:none;stroke:#000000;stroke-width:2;stroke-linecap:round;stroke-linejoin:round;stroke-miterlimit:10;" x1="30" y1="17" x2="36" y2="17"/><path style="fill:none;stroke:#000000;stroke-width:2;stroke-linecap:round;stroke-linejoin:round;stroke-miterlimit:10;" d="M35,28c0,0,0,1-2,1s-2-1-2-1h8c0.125-3.5-0.625-8-6-8c-1.521,0-6,0.693-6,6.5c0,5.373,4.141,6.5,6.169,6.5C37.817,33,39,30,39,28H35z"/><path d="M17.963,29.981h-2.93V26h2.93C18.599,26,20,26.245,20,28.065C20,29.883,18.217,29.981,17.963,29.981z"/><path style="fill:none;stroke:#000000;stroke-width:2;stroke-linejoin:round;stroke-miterlimit:10;" d="M21.305,24.346C21.938,24.02,23,23.198,23,21c0-4.134-3.915-4-4.707-4H11v16.001h7.61C19.244,33,24,32.811,24,28.427C24,25.598,22.256,24.672,21.305,24.346z"/><path d="M15,20h2.381c0.237,0,1.785,0.095,1.785,1.435c0,1.339-1.19,1.565-1.547,1.565H15V20z"/><path d="M30.465,24.226c0.085-0.31,0.254-0.542,0.423-0.774c0.254-0.232,0.507-0.465,0.845-0.619c0.338-0.155,0.761-0.232,1.352-0.232c0.845,0,1.437,0.232,1.859,0.619c0.423,0.387,0.676,1.006,0.761,1.781h-5.408C30.296,24.69,30.38,24.458,30.465,24.226z"/></svg>